<svg xmlns="http://www.w3.org/2000/svg" viewBox="0 0 512 512">
  <rect width="512" height="512" fill="#3b82f6" rx="80"/>
  <g fill="#ffffff">
    <path d="M256 80c-44.2 0-80 35.8-80 80 0 8.8-7.2 16-16 16s-16-7.2-16-16c0-61.9 50.1-112 112-112s112 50.1 112 112 0 8.8-7.2 16-16 16s-16-7.2-16-16c0-44.2-35.8-80-80-80z"/>
    <circle cx="200" cy="200" r="20"/>
    <circle cx="312" cy="200" r="20"/>
    <rect x="180" y="280" width="152" height="120" rx="8" fill="none" stroke="#ffffff" stroke-width="12"/>
    <line x1="220" y1="320" x2="292" y2="320" stroke="#ffffff" stroke-width="8" stroke-linecap="round"/>
    <line x1="220" y1="360" x2="292" y2="360" stroke="#ffffff" stroke-width="8" stroke-linecap="round"/>
  </g>
</svg>